# xmcd
#
# Track frame offsets:
#	300
#	12716
#	24386
#	35054
#	46265
#	55901
#	65948
#	77140
#	87889
#	97505
#	109790
#	121873
#	133752
#	145661
#	157507
#	168424
#	179819
#	188708
#	199721
#	209300
#	223062
#	232849
#	243218
#	254974
#
# Disc length: 3543 seconds
#
# Revision: 1
# Processed by: cddbd v1.5.1PL2 Copyright (c) Steve Scherf et al.
# Submitted via: audiograbber 1.83.01
#
DISCID=520dd318
DTITLE=Connie Smith - Cute N Country
DYEAR=2006
DGENRE=Country
TTITLE0=The Other Side Of You
TTITLE1=Tiny Blue Transistor Radio
TTITLE2=Once A Day
TTITLE3=he Hinges On The Door
TTITLE4=Don't Forget I Still Love You
TTITLE5=Darling, Are You Ever Coming Home?
TTITLE6=Then And Only Then
TTITLE7=The Threshold
TTITLE8=It's Just My Luck
TTITLE9=I'm Ashamed Of You
TTITLE10=I Don't Love You Anymore
TTITLE11=Tell Another Lie
TTITLE12=Two Empty Arms
TTITLE13=Even Tho'
TTITLE14=I Thought Of You
TTITLE15=More To Love Than This
TTITLE16=Not 'Til You Come Back To Me
TTITLE17=Senses
TTITLE18=I'll Be There (If You Ever Want Me)
TTITLE19=Love Is No Excuse
TTITLE20=I Can Stand It (As Long As You Can)
TTITLE21=House Divided
TTITLE22=I Can't Remember
TTITLE23=I Can Turn Your World Around
EXTD=
EXTT0=
EXTT1=
EXTT2=
EXTT3=
EXTT4=
EXTT5=
EXTT6=
EXTT7=
EXTT8=
EXTT9=
EXTT10=
EXTT11=
EXTT12=
EXTT13=
EXTT14=
EXTT15=
EXTT16=
EXTT17=
EXTT18=
EXTT19=
EXTT20=
EXTT21=
EXTT22=
EXTT23=
PLAYORDER=
